<?xml version="1.0" encoding="UTF-8"?>
<svg id="Livello_2" data-name="Livello 2" xmlns="http://www.w3.org/2000/svg" viewBox="0 0 9190.48 1808.82">
  <defs>
    <style>
      .cls-1 {
        stroke-width: 0px;
      }
    </style>
  </defs>
  <g>
    <path class="cls-1" d="M3390.7,307.13l514.34,834.42c49.96,79.55,98.06,160.95,148.02,240.52,0-90.66-3.7-172.08-3.7-262.73V307.13h175.76v1321h-220.16l-512.49-828.85c-49.96-77.71-94.36-157.26-144.32-234.97,0,92.51,3.7,179.47,3.7,271.97v791.86h-175.76V307.13h214.61Z"/>
    <path class="cls-1" d="M4776.34,1511.57c144.32,0,186.87-111.01,186.87-257.17V307.13h175.77v943.56c0,253.48-116.58,408.9-362.64,408.9-205.37,0-366.33-127.67-371.89-358.94l-1.84-70.31h166.51l3.7,74.02c7.4,140.62,85.11,207.21,203.52,207.21Z"/>
    <path class="cls-1" d="M6711.53,967.64c0,371.88-257.17,691.95-684.56,691.95s-684.54-320.07-684.54-691.95,257.17-691.96,684.54-691.96,684.56,320.07,684.56,691.96ZM6026.97,1511.57c329.33,0,508.79-266.43,508.79-543.93s-179.46-543.95-508.79-543.95-508.79,266.42-508.79,543.95,179.48,543.93,508.79,543.93ZM5777.21,0h166.51v192.42h-166.51V0ZM6110.23,0h166.54v192.42h-166.54V0Z"/>
    <path class="cls-1" d="M6922.31,307.13h473.64c301.56,0,447.72,168.37,447.72,375.58,0,188.72-127.64,308.98-275.66,344.14,127.67,33.3,166.51,133.2,216.47,299.72,36.99,122.1,64.74,196.09,114.7,283.06v18.49h-186.86c-44.39-90.66-77.71-212.76-116.55-316.36-46.24-123.98-99.92-223.87-259.03-223.87h-238.68v540.23h-175.74V307.13ZM7388.54,939.89c186.86,0,277.52-101.76,277.52-257.18,0-118.41-64.76-227.56-288.63-227.56h-279.38v484.74h290.49Z"/>
    <path class="cls-1" d="M9190.48,945.43c0,386.68-246.08,682.69-667.9,682.69h-408.88V307.13h397.76c432.94,0,679.02,251.62,679.02,638.3ZM8528.13,1480.13c268.28,0,486.59-181.32,486.59-534.7s-218.3-490.29-493.99-490.29h-231.27v1024.99h238.68Z"/>
  </g>
  <g>
    <path class="cls-1" d="M1457.02,126.44c53.96,31.16,107.93,62.31,161.89,93.47-161.89,93.46-323.78,186.93-485.67,280.39l485.67,280.4c-53.96,31.16-107.93,62.31-161.89,93.47-215.85-124.62-431.71-249.25-647.56-373.87,215.85-124.62,431.71-249.24,647.56-373.86Z"/>
    <path class="cls-1" d="M647.56,593.76c53.96,31.16,107.93,62.31,161.89,93.47-161.89,93.46-323.78,186.93-485.67,280.39l485.67,280.4c-53.96,31.16-107.93,62.31-161.89,93.47C431.71,1216.87,215.85,1092.24,0,967.62c215.85-124.62,431.71-249.24,647.56-373.86Z"/>
    <path class="cls-1" d="M1457.02,1061.09c53.96,31.16,107.93,62.31,161.89,93.47-161.89,93.46-323.78,186.93-485.67,280.39l485.67,280.4c-53.96,31.16-107.93,62.31-161.89,93.47-215.85-124.62-431.71-249.25-647.56-373.87,215.85-124.62,431.71-249.24,647.56-373.86Z"/>
    <path class="cls-1" d="M2266.47,593.76c53.96,31.16,107.93,62.31,161.89,93.47-161.89,93.46-323.78,186.93-485.67,280.39l485.67,280.4c-53.96,31.16-107.93,62.31-161.89,93.47-215.85-124.62-431.71-249.25-647.56-373.87,215.85-124.62,431.71-249.24,647.56-373.86Z"/>
  </g>
</svg>